<?xml version="1.0" standalone="no"?>
<!DOCTYPE svg PUBLIC "-//W3C//DTD SVG 20010904//EN"
 "http://www.w3.org/TR/2001/REC-SVG-20010904/DTD/svg10.dtd">
<svg version="1.0" xmlns="http://www.w3.org/2000/svg"
 width="260.000000pt" height="260.000000pt" viewBox="0 0 260.000000 260.000000"
 preserveAspectRatio="xMidYMid meet">
<metadata>
Created by potrace 1.14, written by Peter Selinger 2001-2017
</metadata>
<g transform="translate(0.000000,260.000000) scale(0.100000,-0.100000)"
fill="#000000" stroke="none">
<path d="M0 1300 l0 -1300 1300 0 1300 0 0 1300 0 1300 -1300 0 -1300 0 0
-1300z m564 1093 c-7 -41 -29 -83 -44 -83 -5 0 -2 19 6 42 8 23 11 45 6 50 -5
5 -27 5 -50 -1 -23 -5 -42 -5 -42 -1 0 7 74 26 113 29 15 1 17 -4 11 -36z
m1590 12 c-10 -8 -23 -14 -29 -14 -5 -1 1 8 15 19 14 10 27 17 29 14 3 -2 -4
-11 -15 -19z m-670 -43 c3 -20 6 -63 6 -94 0 -57 0 -58 -51 -98 -50 -39 -52
-40 -134 -40 -76 0 -86 -2 -115 -27 -31 -26 -32 -29 -26 -82 l6 -56 -52 -37
c-50 -36 -55 -38 -133 -38 -68 0 -84 -3 -107 -23 l-28 -22 -1 -300 c0 -165 0
-309 0 -320 1 -18 8 -20 84 -21 45 0 116 -3 157 -6 41 -3 53 -3 25 1 -27 3 86
4 252 2 166 -2 313 -1 326 3 13 3 35 14 49 25 23 19 24 24 17 77 -4 31 -3 96
2 145 6 61 5 103 -2 132 -6 23 -10 51 -10 62 1 11 2 61 3 112 l0 92 53 40 52
40 129 5 c71 3 139 8 151 12 27 8 38 -22 22 -62 -6 -16 -11 -49 -11 -74 l0
-45 -7 40 c-4 24 -2 53 6 72 18 46 15 65 -4 23 -12 -29 -16 -95 -19 -360 -6
-572 -3 -921 7 -1074 5 -82 7 -156 4 -165 -3 -9 -29 -33 -58 -55 l-52 -38
-125 7 c-69 4 -126 8 -128 10 -1 1 -3 126 -3 276 0 228 -10 413 -24 427 -10
10 -371 13 -520 3 -288 -19 -318 -20 -265 -11 l45 7 -50 1 c-35 1 -56 -4 -72
-17 -21 -18 -23 -27 -22 -127 0 -60 0 -118 -1 -129 0 -11 -2 -74 -3 -140 -2
-66 0 -106 4 -90 4 17 4 -6 2 -50 -5 -68 -9 -84 -32 -108 -56 -61 -77 -70
-169 -71 -47 -1 -77 1 -67 3 14 2 15 5 4 11 -9 6 -25 0 -46 -16 -19 -14 -42
-24 -53 -22 -15 2 -8 11 34 40 49 34 55 36 78 23 15 -7 49 -16 77 -20 50 -7
52 -6 102 36 l51 43 -6 55 c-3 31 -9 76 -12 101 -7 66 -7 127 -1 294 l6 150
42 33 c29 23 48 31 62 27 11 -3 76 -5 146 -3 253 6 700 4 707 -4 4 -4 10 -164
12 -356 l5 -349 113 -7 113 -7 40 33 c46 36 45 31 31 184 -17 201 -10 1399 9
1448 7 18 7 26 1 22 -6 -4 -65 -6 -131 -6 l-120 1 -44 -32 c-34 -25 -43 -38
-38 -53 3 -10 7 -60 8 -110 2 -49 7 -103 12 -120 6 -19 5 -68 -3 -135 -6 -58
-8 -129 -4 -158 l7 -52 -49 -35 -48 -35 -435 -2 c-239 -1 -438 2 -442 5 -8 9
-14 589 -6 634 4 23 17 42 46 63 37 27 48 30 121 30 69 0 83 3 112 25 30 23
33 30 36 87 3 60 4 63 46 95 41 31 49 33 123 33 71 0 84 3 115 26 34 26 34 26
34 110 l0 84 -117 0 c-110 -1 -120 -2 -145 -25 -25 -21 -28 -31 -28 -82 0 -58
0 -59 -48 -95 -47 -35 -50 -35 -120 -30 -67 4 -75 3 -112 -23 -39 -27 -40 -29
-40 -89 -1 -60 -1 -61 -44 -93 -41 -31 -48 -33 -127 -33 -78 0 -87 -2 -117
-27 l-32 -28 1 -325 c1 -179 2 -350 2 -380 1 -76 -11 -243 -19 -274 -3 -14 -1
-48 6 -75 11 -49 11 -55 -19 -259 -11 -72 1 -181 24 -216 15 -23 14 -25 -35
-66 -54 -45 -71 -34 -20 15 24 23 27 31 17 43 -8 10 -12 53 -11 131 2 198 13
543 20 611 8 77 11 321 4 311 -3 -3 -13 -7 -23 -7 -14 -2 -17 6 -17 39 0 39 0
40 20 22 20 -18 20 -17 20 208 l0 226 56 45 c50 41 61 46 102 44 l47 -1 -50
-7 c-46 -6 -43 -7 30 -8 71 -1 83 1 108 23 24 21 27 31 27 83 l0 60 55 37 c54
37 55 38 125 31 67 -6 73 -5 105 21 33 26 35 31 35 89 l0 60 51 36 50 35 123
1 123 2 7 -38z m-970 -4 c-4 -18 -7 -40 -6 -48 0 -9 -15 -26 -35 -38 -19 -13
-32 -19 -28 -13 3 6 1 11 -4 11 -16 0 -13 36 4 50 8 7 15 17 15 22 0 6 -7 8
-15 4 -10 -3 -15 1 -15 14 0 19 16 27 63 29 27 1 28 -1 21 -31z m906 -80 c0
-88 -12 -98 -114 -98 l-81 0 -68 -50 -67 -50 6 -55 c9 -75 -4 -84 -112 -85
-81 0 -81 0 -143 -47 l-61 -47 -2 -206 c-3 -230 0 -424 7 -457 5 -21 11 -23
83 -23 42 0 102 -4 132 -9 30 -4 201 -5 380 -2 l325 7 63 44 63 45 -6 60 c-4
36 0 105 9 176 14 100 15 120 3 150 -8 19 -17 75 -21 126 l-7 91 31 22 c28 20
37 21 103 13 40 -4 82 -7 93 -6 19 1 22 -5 27 -65 3 -37 2 -125 -1 -197 -4
-71 -4 -155 -1 -185 4 -30 2 -86 -3 -125 -12 -97 -10 -722 3 -879 l11 -128
-24 -24 c-24 -24 -24 -24 -121 -12 l-97 12 -1 295 c-1 163 -2 321 -3 353 l0
56 -70 7 c-39 3 -249 3 -466 0 l-395 -6 -50 -40 -50 -41 -1 -81 c-1 -96 -9
-173 -25 -240 -9 -40 -9 -55 4 -85 15 -38 37 -143 37 -178 0 -11 -13 -32 -28
-47 -35 -34 -86 -36 -144 -6 -22 11 -49 18 -60 16 -14 -4 -17 -2 -9 7 7 9 3
23 -14 48 -31 46 -44 169 -25 238 21 75 29 181 19 232 -7 32 -6 82 2 165 7 65
12 141 12 168 -7 345 -3 708 7 721 9 10 36 14 99 14 l86 0 58 46 57 46 0 56
c0 82 13 92 118 92 85 0 85 0 140 42 60 46 72 69 72 132 0 23 3 46 7 49 3 4
53 7 110 7 l103 0 0 -62z m87 5 c-3 -10 -5 -2 -5 17 0 19 2 27 5 18 2 -10 2
-26 0 -35z m-390 -45 c-2 -18 -4 -6 -4 27 0 33 2 48 4 33 2 -15 2 -42 0 -60z
m966 47 c27 -11 36 -21 39 -46 4 -27 0 -34 -33 -54 -46 -30 -81 -39 -109 -30
-27 8 -22 34 18 100 30 50 34 51 85 30z m-1030 -122 c-7 -2 -19 -2 -25 0 -7 3
-2 5 12 5 14 0 19 -2 13 -5z m719 1 l37 -7 0 -98 c-1 -94 -2 -99 -27 -115 -15
-10 -35 -25 -45 -34 -13 -12 -45 -19 -115 -24 -53 -4 -115 -8 -137 -11 l-40
-4 35 8 35 8 -39 2 -39 1 7 61 c3 34 6 78 6 98 1 31 7 41 47 71 39 29 57 36
112 41 105 9 124 9 163 3z m55 -146 c-2 -29 -3 -6 -3 52 0 58 1 81 3 53 2 -29
2 -77 0 -105z m-549 95 c-10 -2 -26 -2 -35 0 -10 3 -2 5 17 5 19 0 27 -2 18
-5z m-479 -90 l-1 -58 -10 43 c-5 24 -7 50 -4 58 11 28 16 13 15 -43z m389
-18 c0 -34 -1 -36 -8 -15 -4 14 -8 41 -8 60 -1 28 1 31 8 15 5 -11 8 -38 8
-60z m249 -2 c-2 -16 -4 -3 -4 27 0 30 2 43 4 28 2 -16 2 -40 0 -55z m731 -39
c-2 -1 -23 -6 -47 -10 l-42 -7 43 48 43 47 3 -37 c2 -20 2 -39 0 -41z m-495
-91 c-18 -2 -48 -2 -65 0 -18 2 -4 4 32 4 36 0 50 -2 33 -4z m-1195 -235 l-1
-213 -8 200 c-8 188 -7 225 6 225 3 0 4 -96 3 -212z m390 -110 c-1 -190 -4
-272 -7 -208 -6 110 -2 520 5 520 2 0 3 -141 2 -312z m869 280 c-3 -8 -6 -5
-6 6 -1 11 2 17 5 13 3 -3 4 -12 1 -19z m10 -90 c-2 -13 -4 -5 -4 17 -1 22 1
32 4 23 2 -10 2 -28 0 -40z m402 -128 c-1 -36 -2 -96 -2 -133 1 -38 -1 -66 -4
-63 -4 3 -7 76 -8 162 0 99 2 146 8 128 4 -16 7 -58 6 -94z m-399 -99 c-2 -53
-2 -130 -1 -171 1 -41 -1 -72 -4 -68 -4 4 -8 74 -10 155 -1 81 -5 168 -9 193
l-7 45 17 -29 c13 -24 16 -50 14 -125z m392 -493 c-3 -246 0 -378 8 -434 9
-56 10 -93 3 -120 l-10 -39 -2 55 c-12 480 -11 890 2 890 1 0 0 -159 -1 -352z
m-1663 211 c0 -68 -4 -171 -9 -229 -8 -103 -8 -102 -4 40 2 80 4 185 4 234 0
49 2 87 5 85 2 -3 4 -61 4 -130z m1144 -286 c-7 -2 -19 -2 -25 0 -7 3 -2 5 12
5 14 0 19 -2 13 -5z m-456 -9 c-3 -3 -12 -4 -19 -1 -8 3 -5 6 6 6 11 1 17 -2
13 -5z m578 -41 c10 -63 13 -611 4 -643 -4 -14 -7 113 -7 282 -1 169 -4 328
-7 352 -6 39 -11 45 -34 49 -24 4 -23 4 5 6 30 1 32 -1 39 -46z m-861 -273
c-3 -30 -6 -73 -6 -95 l0 -40 -10 39 c-8 29 -8 57 1 100 7 36 8 74 4 91 -5 17
-6 68 -4 115 l5 85 8 -120 c5 -66 6 -145 2 -175z m-415 110 c-1 -66 -6 -56
-12 23 -2 32 0 52 4 45 5 -7 8 -38 8 -68z m-16 -207 c-3 -71 -1 -147 5 -170 8
-35 7 -44 -7 -55 -13 -10 -14 -10 -5 1 8 8 9 25 3 49 -14 61 -9 302 7 302 1 0
0 -57 -3 -127z m1704 -180 c-2 -16 -4 -3 -4 27 0 30 2 43 4 28 2 -16 2 -40 0
-55z m-154 -130 c-7 -2 -21 -2 -30 0 -10 3 -4 5 12 5 17 0 24 -2 18 -5z"/>
<path d="M464 2289 c-19 -22 -19 -22 3 -10 24 12 39 31 25 31 -5 0 -17 -10
-28 -21z"/>
<path d="M1297 2305 c-32 -7 -60 -14 -62 -17 -2 -2 -7 -23 -11 -46 l-7 -42 82
0 81 0 0 60 c0 67 4 64 -83 45z m73 -45 l0 -50 -65 0 -65 0 0 34 c0 35 8 39
105 60 11 2 21 4 23 5 1 0 2 -21 2 -49z"/>
<path d="M910 2058 c0 -12 1 -19 3 -17 1 2 9 12 16 22 12 14 11 17 -3 17 -10
0 -16 -8 -16 -22z"/>
<path d="M1850 1855 c-9 -11 -11 -36 -7 -83 8 -92 13 -101 57 -108 47 -8 101
-57 82 -76 -7 -7 -12 -33 -12 -58 l0 -45 -52 -15 c-48 -14 -54 -18 -62 -51 -5
-20 -5 -66 -2 -102 l8 -67 78 0 c66 0 79 3 83 18 13 44 16 112 9 164 -5 31 -5
115 0 187 5 71 5 151 1 178 l-8 48 -65 12 c-86 16 -95 16 -110 -2z m100 -9
l65 -12 8 -49 c5 -31 4 -80 -3 -129 -7 -49 -9 -124 -4 -201 3 -68 4 -139 0
-159 l-7 -36 -69 0 -68 0 -7 63 c-9 96 1 119 63 137 l52 15 0 47 c0 26 5 50
10 53 34 21 -21 88 -82 99 -41 7 -43 12 -54 99 -6 53 4 88 25 86 3 0 35 -6 71
-13z"/>
<path d="M590 1792 c0 -42 3 -52 13 -45 6 6 32 23 55 37 24 15 42 30 39 33 -6
5 -52 -23 -75 -44 -20 -19 -22 -17 -22 23 l0 35 65 -3 c35 -1 69 2 74 7 6 7
-18 10 -70 11 l-79 1 0 -55z"/>
<path d="M585 1416 c-4 -36 -3 -86 1 -110 l9 -45 63 101 c34 55 61 102 60 103
-2 2 -31 6 -65 10 l-61 7 -7 -66z m112 40 c1 -1 -19 -37 -45 -79 -40 -66 -48
-74 -56 -58 -5 11 -5 49 -1 86 l7 66 46 -7 c26 -4 48 -7 49 -8z"/>
<path d="M738 1235 c-3 -6 -1 -32 5 -58 l10 -47 97 0 c53 0 100 -3 104 -7 14
-14 -58 -72 -111 -89 -53 -17 -53 -17 -53 -57 0 -33 -6 -46 -27 -63 -27 -21
-27 -22 -14 -76 17 -68 2 -161 -40 -253 -15 -33 -31 -72 -34 -88 -7 -25 -4
-28 25 -33 23 -5 36 -16 48 -40 14 -31 14 -35 -1 -47 -9 -6 -27 -31 -39 -54
-17 -30 -28 -39 -37 -33 -12 7 -10 15 8 45 l22 38 -55 -7 c-64 -7 -70 -1 -79
74 -5 32 -4 38 2 20 6 -17 8 0 6 55 -1 44 -1 75 2 69 2 -6 14 -9 27 -7 13 3
26 1 29 -4 7 -11 -33 -126 -45 -131 -11 -5 -10 -32 1 -32 9 0 26 38 37 84 4
16 13 41 20 55 12 23 12 27 -4 33 -9 4 -28 7 -41 7 -19 1 -22 5 -18 23 3 13 9
49 13 81 5 42 13 65 30 82 28 28 32 50 7 40 -10 -3 -22 -7 -27 -8 -17 -3 -25
67 -15 141 8 64 14 80 47 120 51 62 96 131 90 138 -3 3 -20 -18 -36 -45 -17
-28 -48 -68 -68 -91 -33 -36 -37 -48 -46 -123 -11 -85 2 -174 22 -162 6 4 10
2 10 -4 0 -5 -4 -12 -9 -16 -5 -3 -13 -31 -16 -63 -4 -31 -16 -87 -27 -124
-17 -58 -18 -75 -8 -125 6 -32 16 -69 23 -81 10 -22 16 -23 60 -18 l49 7 -21
-35 -22 -35 30 -15 c41 -22 84 -20 106 4 17 19 17 25 6 73 -21 82 -38 117 -58
117 -42 1 -43 13 -8 97 44 110 61 204 47 268 -10 47 -9 52 14 76 16 17 24 37
24 61 0 35 2 37 53 53 32 11 68 33 95 58 53 51 46 55 -89 56 l-96 1 -9 53 c-5
28 -12 47 -16 42z m-181 -737 c-3 -7 -5 -2 -5 12 0 14 2 19 5 13 2 -7 2 -19 0
-25z m203 -191 c0 -21 -27 -34 -42 -19 -7 7 -4 18 8 37 18 28 34 20 34 -18z"/>
<path d="M1774 1188 l-71 -50 -244 -9 -244 -9 -114 -52 c-106 -49 -112 -53
-85 -61 16 -4 107 -5 202 -1 l174 6 71 49 c39 27 74 49 79 49 5 0 16 -16 26
-36 l17 -36 59 5 c49 4 64 11 93 39 35 33 118 147 111 152 -1 2 -35 -19 -74
-46z m4 -40 c-53 -68 -78 -88 -112 -88 -17 0 -40 -3 -52 -6 -15 -4 -24 2 -34
23 -8 15 -16 31 -18 34 -1 3 32 9 75 13 73 7 108 20 141 53 31 30 31 10 0 -29z
m-312 -68 c-31 -22 -59 -40 -61 -40 -3 0 -5 18 -5 40 l0 40 62 0 61 0 -57 -40z
m-96 -15 l0 -45 -52 0 c-29 0 -104 -3 -165 -7 -122 -7 -142 2 -75 32 20 9 60
27 87 41 39 19 66 24 128 24 l77 0 0 -45z"/>
<path d="M1835 1025 c-30 -13 -30 -13 -5 -16 24 -4 25 -6 27 -93 1 -49 4 -90
6 -93 3 -2 34 11 71 29 l66 32 0 58 0 58 -44 20 c-51 23 -78 24 -121 5z m109
-15 c46 -19 46 -20 46 -67 l0 -48 -60 -32 -60 -32 0 99 c0 113 -1 112 74 80z"/>
<path d="M1995 469 c-11 -4 -41 -15 -67 -25 -27 -9 -48 -20 -48 -25 0 -4 28 3
62 17 34 13 62 23 64 21 6 -6 30 -158 26 -162 -7 -7 -73 -6 -111 1 -21 4 -31
12 -31 25 0 10 -5 21 -11 25 -7 4 -9 25 -7 56 3 27 1 51 -5 55 -8 5 -6 -50 5
-149 2 -13 16 -19 58 -23 30 -3 65 -8 76 -10 37 -8 43 13 28 104 -17 104 -15
100 -39 90z"/>
<path d="M1616 2140 c-68 -7 -82 -12 -106 -36 -24 -25 -29 -40 -35 -110 -7
-79 -6 -81 17 -87 12 -4 67 -4 121 0 84 5 102 10 130 31 31 25 32 27 35 114 2
86 2 88 -20 88 -13 0 -32 2 -43 4 -11 2 -55 0 -99 -4z m125 -100 c-2 -53 -8
-78 -19 -86 -16 -12 -209 -30 -219 -21 -2 3 1 39 7 81 11 62 16 77 34 82 29
10 134 22 171 20 l30 -1 -4 -75z"/>
<path d="M1644 2090 c-85 -12 -113 -44 -114 -127 0 -12 159 -7 171 6 4 3 10
34 13 69 5 48 4 62 -6 61 -7 -1 -36 -5 -64 -9z m59 -47 c-7 -75 -5 -73 -86
-73 l-73 0 4 35 c2 19 11 40 19 47 12 9 90 31 134 37 4 1 4 -20 2 -46z"/>
</g>
</svg>
